<svg width="229" height="218" viewBox="0 0 229 218" fill="none" xmlns="http://www.w3.org/2000/svg">
<path fill-rule="evenodd" clip-rule="evenodd" d="M163 4.2791V8.8521H98.5C63.025 8.8521 34 9.1111 34 9.4271C34 9.7441 39.765 19.9811 46.811 32.1771C53.857 44.3731 71.923 75.6441 86.959 101.668C108.938 139.71 114.536 148.726 115.521 147.668C117.409 145.638 131 121.732 131 120.441C131 119.812 130.333 118.345 129.518 117.181C126.817 113.324 116 93.8821 116 92.8831C116 92.2931 122.457 91.7921 132.201 91.6271L148.403 91.3521L155.649 78.8521C159.635 71.9771 162.919 65.7901 162.948 65.1021C162.988 64.1291 156.494 63.8521 133.667 63.8521C117.533 63.8521 104.062 64.1231 103.731 64.4551C103.399 64.7861 103.538 66.1361 104.039 67.4551C104.54 68.7731 104.624 69.8391 104.225 69.8231C102.765 69.7651 71.895 60.0801 71.312 59.4971C70.981 59.1661 73.01 55.6231 75.822 51.6241C78.633 47.6241 83.002 41.3141 85.53 37.6021C88.058 33.8901 90.45 30.8521 90.844 30.8521C91.239 30.8521 92.071 32.2021 92.694 33.8521L93.826 36.8521H128.358H162.89L163.195 41.4391L163.5 46.0251L179.194 34.6891C187.825 28.4531 194.891 22.9021 194.896 22.3521C194.905 21.2731 166.559 0.564097 164.34 0.0290974C163.368 -0.205903 163 0.962098 163 4.2791Z" fill="#FDE200"/>
<path d="M5.4 208V168.4H27.648V175.216H11.304L13.176 173.512V186.904L11.304 184.744H26.568V191.56H11.304L13.176 189.4V208H5.4ZM34.4138 208V183.424H41.7818V208H34.4138ZM38.1098 178.312C37.3098 178.312 36.5738 178.12 35.9018 177.736C35.2458 177.336 34.7178 176.8 34.3178 176.128C33.9178 175.456 33.7178 174.72 33.7178 173.92C33.7178 173.12 33.9178 172.392 34.3178 171.736C34.7178 171.08 35.2458 170.56 35.9018 170.176C36.5738 169.776 37.3098 169.576 38.1098 169.576C38.9098 169.576 39.6378 169.776 40.2938 170.176C40.9498 170.56 41.4698 171.08 41.8538 171.736C42.2538 172.392 42.4538 173.12 42.4538 173.92C42.4538 174.72 42.2538 175.456 41.8538 176.128C41.4698 176.8 40.9498 177.336 40.2938 177.736C39.6378 178.12 38.9098 178.312 38.1098 178.312ZM50.469 208V183.424H57.837V186.16C58.781 185.104 59.957 184.256 61.365 183.616C62.789 182.976 64.357 182.656 66.069 182.656C67.957 182.656 69.613 183.072 71.037 183.904C72.477 184.72 73.605 185.864 74.421 187.336C75.237 188.792 75.645 190.496 75.645 192.448V208H68.277V194.008C68.277 192.248 67.813 190.88 66.885 189.904C65.973 188.912 64.717 188.416 63.117 188.416C62.029 188.416 61.085 188.64 60.285 189.088C59.501 189.52 58.893 190.12 58.461 190.888C58.045 191.64 57.837 192.496 57.837 193.456V208H50.469ZM96.084 208.768C93.38 208.768 90.94 208.216 88.764 207.112C86.588 205.992 84.86 204.456 83.58 202.504C82.3 200.536 81.66 198.272 81.66 195.712C81.66 193.152 82.292 190.896 83.556 188.944C84.836 186.976 86.564 185.44 88.74 184.336C90.932 183.216 93.38 182.656 96.084 182.656C98.804 182.656 101.252 183.216 103.428 184.336C105.604 185.44 107.324 186.976 108.588 188.944C109.868 190.896 110.508 193.152 110.508 195.712C110.508 198.272 109.868 200.536 108.588 202.504C107.324 204.456 105.604 205.992 103.428 207.112C101.252 208.216 98.804 208.768 96.084 208.768ZM96.108 202.48C97.356 202.48 98.492 202.192 99.516 201.616C100.54 201.04 101.348 200.248 101.94 199.24C102.532 198.216 102.828 197.04 102.828 195.712C102.828 194.384 102.532 193.216 101.94 192.208C101.348 191.184 100.54 190.384 99.516 189.808C98.492 189.232 97.356 188.944 96.108 188.944C94.844 188.944 93.7 189.232 92.676 189.808C91.668 190.384 90.868 191.184 90.276 192.208C89.684 193.216 89.388 194.384 89.388 195.712C89.388 197.04 89.684 198.216 90.276 199.24C90.868 200.248 91.668 201.04 92.676 201.616C93.7 202.192 94.844 202.48 96.108 202.48ZM125.053 208L112.141 183.424H120.829L127.525 198.256L134.221 183.424H142.909L129.973 208H125.053ZM156.858 208.768C154.602 208.768 152.546 208.208 150.69 207.088C148.85 205.952 147.386 204.4 146.298 202.432C145.226 200.448 144.69 198.192 144.69 195.664C144.69 193.2 145.21 190.992 146.25 189.04C147.29 187.072 148.722 185.52 150.546 184.384C152.386 183.232 154.49 182.656 156.858 182.656C158.602 182.656 160.226 182.992 161.73 183.664C163.25 184.32 164.49 185.24 165.45 186.424V183.424H172.818V208H165.45V204.76C164.33 206.056 163.042 207.048 161.586 207.736C160.13 208.424 158.554 208.768 156.858 208.768ZM159.042 202.504C160.322 202.504 161.458 202.216 162.45 201.64C163.442 201.048 164.218 200.24 164.778 199.216C165.338 198.192 165.618 197.024 165.618 195.712C165.618 194.384 165.33 193.216 164.754 192.208C164.194 191.184 163.418 190.384 162.426 189.808C161.45 189.216 160.322 188.92 159.042 188.92C157.778 188.92 156.65 189.216 155.658 189.808C154.666 190.384 153.882 191.184 153.306 192.208C152.73 193.232 152.442 194.4 152.442 195.712C152.442 197.024 152.722 198.192 153.282 199.216C153.858 200.24 154.642 201.048 155.634 201.64C156.626 202.216 157.762 202.504 159.042 202.504ZM189.629 208.768C187.181 208.768 185.277 207.992 183.917 206.44C182.557 204.872 181.877 202.688 181.877 199.888V189.016H178.589V183.424H181.877V174.208H189.245V183.424H194.645V189.016H189.245V199.36C189.245 200.288 189.429 200.992 189.797 201.472C190.181 201.952 190.717 202.192 191.405 202.192C192.173 202.192 192.909 201.936 193.613 201.424L195.461 207.328C194.629 207.776 193.693 208.128 192.653 208.384C191.629 208.64 190.621 208.768 189.629 208.768ZM213.636 208.768C210.98 208.768 208.596 208.2 206.484 207.064C204.388 205.912 202.724 204.352 201.492 202.384C200.26 200.416 199.644 198.192 199.644 195.712C199.644 193.888 199.988 192.184 200.676 190.6C201.38 189.016 202.356 187.632 203.604 186.448C204.852 185.248 206.3 184.32 207.948 183.664C209.596 182.992 211.38 182.656 213.3 182.656C215.86 182.656 218.1 183.192 220.02 184.264C221.956 185.32 223.46 186.792 224.532 188.68C225.62 190.568 226.164 192.768 226.164 195.28C226.164 195.488 226.156 195.672 226.14 195.832C226.14 195.976 226.116 196.256 226.068 196.672H207.228C207.228 197.92 207.508 199.008 208.068 199.936C208.644 200.864 209.444 201.592 210.468 202.12C211.492 202.632 212.684 202.888 214.044 202.888C215.324 202.888 216.452 202.64 217.428 202.144C218.42 201.648 219.372 200.856 220.284 199.768L225.588 202.432C224.436 204.416 222.804 205.968 220.692 207.088C218.58 208.208 216.228 208.768 213.636 208.768ZM207.492 192.592H218.916C218.756 191.648 218.412 190.832 217.884 190.144C217.372 189.456 216.716 188.928 215.916 188.56C215.116 188.192 214.212 188.008 213.204 188.008C212.132 188.008 211.188 188.192 210.372 188.56C209.556 188.928 208.9 189.456 208.404 190.144C207.908 190.832 207.604 191.648 207.492 192.592Z" fill="black"/>
<circle cx="38.5" cy="173.5" r="5.5" fill="#FDE200"/>
</svg>
